<svg version="1.1" xmlns="http://www.w3.org/2000/svg" xmlns:xlink="http://www.w3.org/1999/xlink" width="24" height="24" viewBox="0,0,256,256"><g fill="#ffffff" fill-rule="nonzero" stroke="none" stroke-width="1" stroke-linecap="butt" stroke-linejoin="miter" stroke-miterlimit="10" stroke-dasharray="" stroke-dashoffset="0" font-family="none" font-weight="none" font-size="none" text-anchor="none" style="mix-blend-mode: normal"><g transform="scale(10.66667,10.66667)"><path d="M12,3c-1.66,0 -3,1.37 -3,3.07v5.86c0,1.7 1.34,3.07 3,3.07c1.66,0 3,-1.37 3,-3.07v-5.86c0,-1.7 -1.34,-3.07 -3,-3.07zM18.5,12h-1c0,3.03 -2.47,5.5 -5.5,5.5c-3.03,0 -5.5,-2.47 -5.5,-5.5h-1c0,3.24 2.39,5.93 5.5,6.41v2.59h2v-2.59c3.11,-0.48 5.5,-3.17 5.5,-6.41z"></path></g></g></svg>