<svg width="52" height="25" viewBox="0 0 52 25" fill="none" xmlns="http://www.w3.org/2000/svg">
<mask id="path-1-outside-1_31_2" maskUnits="userSpaceOnUse" x="-1" y="8" width="53" height="10" fill="black">
<rect fill="white" x="-1" y="8" width="53" height="10"/>
<path d="M3.76705 10.4545V11.3068H0.375V10.4545H3.76705ZM1.36364 8.88636H2.36932V15.125C2.36932 15.4091 2.41051 15.6222 2.4929 15.7642C2.57813 15.9034 2.68608 15.9972 2.81676 16.0455C2.95028 16.0909 3.09091 16.1136 3.23864 16.1136C3.34943 16.1136 3.44034 16.108 3.51136 16.0966C3.58239 16.0824 3.6392 16.071 3.68182 16.0625L3.88636 16.9659C3.81818 16.9915 3.72301 17.017 3.60085 17.0426C3.47869 17.071 3.32386 17.0852 3.13636 17.0852C2.85227 17.0852 2.57386 17.0241 2.30114 16.902C2.03125 16.7798 1.80682 16.5938 1.62784 16.3438C1.4517 16.0938 1.36364 15.7784 1.36364 15.3977V8.88636ZM7.24278 17L5.24847 10.4545H6.30528L7.72006 15.4659H7.78824L9.18597 10.4545H10.2598L11.6405 15.4489H11.7087L13.1235 10.4545H14.1803L12.186 17H11.1973L9.76551 11.9716H9.66324L8.23142 17H7.24278ZM18.5115 17.1364C17.8808 17.1364 17.3368 16.9972 16.8794 16.7188C16.4248 16.4375 16.074 16.0455 15.8268 15.5426C15.5825 15.0369 15.4604 14.4489 15.4604 13.7784C15.4604 13.108 15.5825 12.517 15.8268 12.0057C16.074 11.4915 16.4177 11.0909 16.8581 10.804C17.3013 10.5142 17.8183 10.3693 18.4092 10.3693C18.7501 10.3693 19.0868 10.4261 19.4192 10.5398C19.7515 10.6534 20.0541 10.8381 20.3268 11.0938C20.5996 11.3466 20.8169 11.6818 20.9788 12.0994C21.1408 12.517 21.2217 13.0312 21.2217 13.642V14.0682H16.1763V13.1989H20.199C20.199 12.8295 20.1251 12.5 19.9774 12.2102C19.8325 11.9205 19.6251 11.6918 19.3552 11.5241C19.0882 11.3565 18.7729 11.2727 18.4092 11.2727C18.0087 11.2727 17.6621 11.3722 17.3694 11.571C17.0797 11.767 16.8567 12.0227 16.7004 12.3381C16.5442 12.6534 16.466 12.9915 16.466 13.3523V13.9318C16.466 14.4261 16.5513 14.8452 16.7217 15.1889C16.895 15.5298 17.1351 15.7898 17.4419 15.9688C17.7487 16.1449 18.1052 16.233 18.5115 16.233C18.7757 16.233 19.0143 16.196 19.2274 16.1222C19.4433 16.0455 19.6294 15.9318 19.7856 15.7812C19.9419 15.6278 20.0626 15.4375 20.1479 15.2102L21.1194 15.483C21.0172 15.8125 20.8453 16.1023 20.6038 16.3523C20.3623 16.5994 20.064 16.7926 19.7089 16.9318C19.3538 17.0682 18.9547 17.1364 18.5115 17.1364ZM44.0038 10.4545L41.5834 17H40.5606L38.1402 10.4545H39.2311L41.0379 15.6705H41.1061L42.9129 10.4545H44.0038ZM48.3212 17.1364C47.6905 17.1364 47.1465 16.9972 46.6891 16.7188C46.2345 16.4375 45.8837 16.0455 45.6365 15.5426C45.3922 15.0369 45.27 14.4489 45.27 13.7784C45.27 13.108 45.3922 12.517 45.6365 12.0057C45.8837 11.4915 46.2274 11.0909 46.6678 10.804C47.111 10.5142 47.628 10.3693 48.2189 10.3693C48.5598 10.3693 48.8965 10.4261 49.2288 10.5398C49.5612 10.6534 49.8638 10.8381 50.1365 11.0938C50.4092 11.3466 50.6266 11.6818 50.7885 12.0994C50.9504 12.517 51.0314 13.0312 51.0314 13.642V14.0682H45.986V13.1989H50.0087C50.0087 12.8295 49.9348 12.5 49.7871 12.2102C49.6422 11.9205 49.4348 11.6918 49.1649 11.5241C48.8979 11.3565 48.5825 11.2727 48.2189 11.2727C47.8183 11.2727 47.4717 11.3722 47.1791 11.571C46.8894 11.767 46.6663 12.0227 46.5101 12.3381C46.3538 12.6534 46.2757 12.9915 46.2757 13.3523V13.9318C46.2757 14.4261 46.361 14.8452 46.5314 15.1889C46.7047 15.5298 46.9448 15.7898 47.2516 15.9688C47.5584 16.1449 47.9149 16.233 48.3212 16.233C48.5854 16.233 48.824 16.196 49.0371 16.1222C49.253 16.0455 49.4391 15.9318 49.5953 15.7812C49.7516 15.6278 49.8723 15.4375 49.9575 15.2102L50.9291 15.483C50.8269 15.8125 50.655 16.1023 50.4135 16.3523C50.172 16.5994 49.8737 16.7926 49.5186 16.9318C49.1635 17.0682 48.7644 17.1364 48.3212 17.1364Z"/>
</mask>
<path d="M3.76705 10.4545V11.3068H0.375V10.4545H3.76705ZM1.36364 8.88636H2.36932V15.125C2.36932 15.4091 2.41051 15.6222 2.4929 15.7642C2.57813 15.9034 2.68608 15.9972 2.81676 16.0455C2.95028 16.0909 3.09091 16.1136 3.23864 16.1136C3.34943 16.1136 3.44034 16.108 3.51136 16.0966C3.58239 16.0824 3.6392 16.071 3.68182 16.0625L3.88636 16.9659C3.81818 16.9915 3.72301 17.017 3.60085 17.0426C3.47869 17.071 3.32386 17.0852 3.13636 17.0852C2.85227 17.0852 2.57386 17.0241 2.30114 16.902C2.03125 16.7798 1.80682 16.5938 1.62784 16.3438C1.4517 16.0938 1.36364 15.7784 1.36364 15.3977V8.88636ZM7.24278 17L5.24847 10.4545H6.30528L7.72006 15.4659H7.78824L9.18597 10.4545H10.2598L11.6405 15.4489H11.7087L13.1235 10.4545H14.1803L12.186 17H11.1973L9.76551 11.9716H9.66324L8.23142 17H7.24278ZM18.5115 17.1364C17.8808 17.1364 17.3368 16.9972 16.8794 16.7188C16.4248 16.4375 16.074 16.0455 15.8268 15.5426C15.5825 15.0369 15.4604 14.4489 15.4604 13.7784C15.4604 13.108 15.5825 12.517 15.8268 12.0057C16.074 11.4915 16.4177 11.0909 16.8581 10.804C17.3013 10.5142 17.8183 10.3693 18.4092 10.3693C18.7501 10.3693 19.0868 10.4261 19.4192 10.5398C19.7515 10.6534 20.0541 10.8381 20.3268 11.0938C20.5996 11.3466 20.8169 11.6818 20.9788 12.0994C21.1408 12.517 21.2217 13.0312 21.2217 13.642V14.0682H16.1763V13.1989H20.199C20.199 12.8295 20.1251 12.5 19.9774 12.2102C19.8325 11.9205 19.6251 11.6918 19.3552 11.5241C19.0882 11.3565 18.7729 11.2727 18.4092 11.2727C18.0087 11.2727 17.6621 11.3722 17.3694 11.571C17.0797 11.767 16.8567 12.0227 16.7004 12.3381C16.5442 12.6534 16.466 12.9915 16.466 13.3523V13.9318C16.466 14.4261 16.5513 14.8452 16.7217 15.1889C16.895 15.5298 17.1351 15.7898 17.4419 15.9688C17.7487 16.1449 18.1052 16.233 18.5115 16.233C18.7757 16.233 19.0143 16.196 19.2274 16.1222C19.4433 16.0455 19.6294 15.9318 19.7856 15.7812C19.9419 15.6278 20.0626 15.4375 20.1479 15.2102L21.1194 15.483C21.0172 15.8125 20.8453 16.1023 20.6038 16.3523C20.3623 16.5994 20.064 16.7926 19.7089 16.9318C19.3538 17.0682 18.9547 17.1364 18.5115 17.1364ZM44.0038 10.4545L41.5834 17H40.5606L38.1402 10.4545H39.2311L41.0379 15.6705H41.1061L42.9129 10.4545H44.0038ZM48.3212 17.1364C47.6905 17.1364 47.1465 16.9972 46.6891 16.7188C46.2345 16.4375 45.8837 16.0455 45.6365 15.5426C45.3922 15.0369 45.27 14.4489 45.27 13.7784C45.27 13.108 45.3922 12.517 45.6365 12.0057C45.8837 11.4915 46.2274 11.0909 46.6678 10.804C47.111 10.5142 47.628 10.3693 48.2189 10.3693C48.5598 10.3693 48.8965 10.4261 49.2288 10.5398C49.5612 10.6534 49.8638 10.8381 50.1365 11.0938C50.4092 11.3466 50.6266 11.6818 50.7885 12.0994C50.9504 12.517 51.0314 13.0312 51.0314 13.642V14.0682H45.986V13.1989H50.0087C50.0087 12.8295 49.9348 12.5 49.7871 12.2102C49.6422 11.9205 49.4348 11.6918 49.1649 11.5241C48.8979 11.3565 48.5825 11.2727 48.2189 11.2727C47.8183 11.2727 47.4717 11.3722 47.1791 11.571C46.8894 11.767 46.6663 12.0227 46.5101 12.3381C46.3538 12.6534 46.2757 12.9915 46.2757 13.3523V13.9318C46.2757 14.4261 46.361 14.8452 46.5314 15.1889C46.7047 15.5298 46.9448 15.7898 47.2516 15.9688C47.5584 16.1449 47.9149 16.233 48.3212 16.233C48.5854 16.233 48.824 16.196 49.0371 16.1222C49.253 16.0455 49.4391 15.9318 49.5953 15.7812C49.7516 15.6278 49.8723 15.4375 49.9575 15.2102L50.9291 15.483C50.8269 15.8125 50.655 16.1023 50.4135 16.3523C50.172 16.5994 49.8737 16.7926 49.5186 16.9318C49.1635 17.0682 48.7644 17.1364 48.3212 17.1364Z" fill="white"/>
<path d="M3.76705 10.4545H4.26705V9.95455H3.76705V10.4545ZM3.76705 11.3068V11.8068H4.26705V11.3068H3.76705ZM0.375 11.3068H-0.125V11.8068H0.375V11.3068ZM0.375 10.4545V9.95455H-0.125V10.4545H0.375ZM1.36364 8.88636V8.38636H0.863636V8.88636H1.36364ZM2.36932 8.88636H2.86932V8.38636H2.36932V8.88636ZM2.4929 15.7642L2.06026 16.0151L2.06647 16.0253L2.4929 15.7642ZM2.81676 16.0455L2.64338 16.5146L2.65563 16.5188L2.81676 16.0455ZM3.51136 16.0966L3.59036 16.5903L3.59992 16.5888L3.60942 16.5869L3.51136 16.0966ZM3.68182 16.0625L4.16947 15.9521L4.06182 15.4766L3.58376 15.5722L3.68182 16.0625ZM3.88636 16.9659L4.06193 17.4341L4.47034 17.2809L4.37402 16.8555L3.88636 16.9659ZM3.60085 17.0426L3.4984 16.5531L3.4876 16.5556L3.60085 17.0426ZM2.30114 16.902L2.09496 17.3575L2.09675 17.3583L2.30114 16.902ZM1.62784 16.3438L1.21909 16.6317L1.22129 16.6348L1.62784 16.3438ZM3.26705 10.4545V11.3068H4.26705V10.4545H3.26705ZM3.76705 10.8068H0.375V11.8068H3.76705V10.8068ZM0.875 11.3068V10.4545H-0.125V11.3068H0.875ZM0.375 10.9545H3.76705V9.95455H0.375V10.9545ZM1.36364 9.38636H2.36932V8.38636H1.36364V9.38636ZM1.86932 8.88636V15.125H2.86932V8.88636H1.86932ZM1.86932 15.125C1.86932 15.441 1.91226 15.7597 2.06038 16.0151L2.92541 15.5133C2.90877 15.4846 2.86932 15.3771 2.86932 15.125H1.86932ZM2.06647 16.0253C2.19984 16.2431 2.39003 16.4208 2.64344 16.5145L2.99009 15.5765C2.98213 15.5735 2.95641 15.5637 2.91932 15.5031L2.06647 16.0253ZM2.65563 16.5188C2.84346 16.5827 3.03872 16.6136 3.23864 16.6136V15.6136C3.1431 15.6136 3.05711 15.5991 2.97789 15.5721L2.65563 16.5188ZM3.23864 16.6136C3.36338 16.6136 3.48323 16.6075 3.59036 16.5903L3.43237 15.6029C3.39745 15.6085 3.33549 15.6136 3.23864 15.6136V16.6136ZM3.60942 16.5869C3.68044 16.5727 3.73726 16.5613 3.77988 16.5528L3.58376 15.5722C3.54115 15.5807 3.48433 15.5921 3.41331 15.6063L3.60942 16.5869ZM3.19416 16.1729L3.39871 17.0763L4.37402 16.8555L4.16947 15.9521L3.19416 16.1729ZM3.7108 16.4977C3.67734 16.5103 3.61057 16.5297 3.49842 16.5532L3.70328 17.532C3.83545 17.5043 3.95902 17.4727 4.06193 17.4341L3.7108 16.4977ZM3.4876 16.5556C3.41597 16.5723 3.30253 16.5852 3.13636 16.5852V17.5852C3.3452 17.5852 3.54142 17.5698 3.71411 17.5296L3.4876 16.5556ZM3.13636 16.5852C2.92636 16.5852 2.71737 16.5406 2.50553 16.4457L2.09675 17.3583C2.43036 17.5077 2.77819 17.5852 3.13636 17.5852V16.5852ZM2.50732 16.4465C2.32062 16.362 2.16422 16.234 2.0344 16.0527L1.22129 16.6348C1.44942 16.9535 1.74188 17.1977 2.09496 17.3575L2.50732 16.4465ZM2.03658 16.0558C1.93298 15.9087 1.86364 15.7008 1.86364 15.3977H0.863636C0.863636 15.856 0.970426 16.2788 1.2191 16.6317L2.03658 16.0558ZM1.86364 15.3977V8.88636H0.863636V15.3977H1.86364ZM7.24278 17L6.76449 17.1457L6.87243 17.5H7.24278V17ZM5.24847 10.4545V9.95455H4.57343L4.77017 10.6003L5.24847 10.4545ZM6.30528 10.4545L6.78648 10.3187L6.68367 9.95455H6.30528V10.4545ZM7.72006 15.4659L7.23887 15.6018L7.34167 15.9659H7.72006V15.4659ZM7.78824 15.4659V15.9659H8.16787L8.26986 15.6002L7.78824 15.4659ZM9.18597 10.4545V9.95455H8.80634L8.70435 10.3202L9.18597 10.4545ZM10.2598 10.4545L10.7418 10.3213L10.6404 9.95455H10.2598V10.4545ZM11.6405 15.4489L11.1586 15.5821L11.26 15.9489H11.6405V15.4489ZM11.7087 15.4489V15.9489H12.0867L12.1898 15.5851L11.7087 15.4489ZM13.1235 10.4545V9.95455H12.7454L12.6424 10.3183L13.1235 10.4545ZM14.1803 10.4545L14.6586 10.6003L14.8553 9.95455H14.1803V10.4545ZM12.186 17V17.5H12.5563L12.6643 17.1457L12.186 17ZM11.1973 17L10.7164 17.1369L10.8198 17.5H11.1973V17ZM9.76551 11.9716L10.2464 11.8347L10.143 11.4716H9.76551V11.9716ZM9.66324 11.9716V11.4716H9.28574L9.18235 11.8347L9.66324 11.9716ZM8.23142 17V17.5H8.60892L8.71231 17.1369L8.23142 17ZM7.72108 16.8543L5.72676 10.3088L4.77017 10.6003L6.76449 17.1457L7.72108 16.8543ZM5.24847 10.9545H6.30528V9.95455H5.24847V10.9545ZM5.82409 10.5904L7.23887 15.6018L8.20125 15.3301L6.78648 10.3187L5.82409 10.5904ZM7.72006 15.9659H7.78824V14.9659H7.72006V15.9659ZM8.26986 15.6002L9.66758 10.5889L8.70435 10.3202L7.30662 15.3316L8.26986 15.6002ZM9.18597 10.9545H10.2598V9.95455H9.18597V10.9545ZM9.77791 10.5878L11.1586 15.5821L12.1224 15.3156L10.7418 10.3213L9.77791 10.5878ZM11.6405 15.9489H11.7087V14.9489H11.6405V15.9489ZM12.1898 15.5851L13.6045 10.5908L12.6424 10.3183L11.2276 15.3126L12.1898 15.5851ZM13.1235 10.9545H14.1803V9.95455H13.1235V10.9545ZM13.702 10.3088L11.7077 16.8543L12.6643 17.1457L14.6586 10.6003L13.702 10.3088ZM12.186 16.5H11.1973V17.5H12.186V16.5ZM11.6782 16.8631L10.2464 11.8347L9.28463 12.1085L10.7164 17.1369L11.6782 16.8631ZM9.76551 11.4716H9.66324V12.4716H9.76551V11.4716ZM9.18235 11.8347L7.75054 16.8631L8.71231 17.1369L10.1441 12.1085L9.18235 11.8347ZM8.23142 16.5H7.24278V17.5H8.23142V16.5ZM16.8794 16.7188L16.6163 17.144L16.6194 17.1458L16.8794 16.7188ZM15.8268 15.5426L15.3766 15.7601L15.3781 15.7632L15.8268 15.5426ZM15.8268 12.0057L15.3762 11.7891L15.3757 11.7901L15.8268 12.0057ZM16.8581 10.804L17.1311 11.2229L17.1317 11.2225L16.8581 10.804ZM19.4192 10.5398L19.5809 10.0667L19.5809 10.0667L19.4192 10.5398ZM20.3268 11.0938L19.9849 11.4585L19.9869 11.4604L20.3268 11.0938ZM20.9788 12.0994L21.445 11.9187L21.445 11.9187L20.9788 12.0994ZM21.2217 14.0682V14.5682H21.7217V14.0682H21.2217ZM16.1763 14.0682H15.6763V14.5682H16.1763V14.0682ZM16.1763 13.1989V12.6989H15.6763V13.1989H16.1763ZM20.199 13.1989V13.6989H20.699V13.1989H20.199ZM19.9774 12.2102L19.5302 12.4338L19.5319 12.4373L19.9774 12.2102ZM19.3552 11.5241L19.0894 11.9476L19.0914 11.9489L19.3552 11.5241ZM17.3694 11.571L17.6496 11.9852L17.6505 11.9846L17.3694 11.571ZM16.7004 12.3381L16.2524 12.1161L16.2524 12.1161L16.7004 12.3381ZM16.7217 15.1889L16.2737 15.4111L16.276 15.4155L16.7217 15.1889ZM17.4419 15.9688L17.1899 16.4006L17.193 16.4024L17.4419 15.9688ZM19.2274 16.1222L19.3912 16.5946L19.3948 16.5933L19.2274 16.1222ZM19.7856 15.7812L20.1326 16.1413L20.1359 16.138L19.7856 15.7812ZM20.1479 15.2102L20.283 14.7288L19.8409 14.6047L19.6797 15.0347L20.1479 15.2102ZM21.1194 15.483L21.597 15.6312L21.7493 15.1404L21.2546 15.0016L21.1194 15.483ZM20.6038 16.3523L20.9615 16.7017L20.9635 16.6996L20.6038 16.3523ZM19.7089 16.9318L19.8882 17.3986L19.8914 17.3973L19.7089 16.9318ZM18.5115 16.6364C17.956 16.6364 17.5054 16.5145 17.1394 16.2917L16.6194 17.1458C17.1681 17.4798 17.8056 17.6364 18.5115 17.6364V16.6364ZM17.1425 16.2936C16.7717 16.0642 16.4834 15.7449 16.2756 15.3221L15.3781 15.7632C15.6646 16.346 16.0779 16.8108 16.6163 17.1439L17.1425 16.2936ZM16.277 15.3251C16.0712 14.8991 15.9604 14.388 15.9604 13.7784H14.9604C14.9604 14.5098 15.0938 15.1747 15.3766 15.7601L16.277 15.3251ZM15.9604 13.7784C15.9604 13.169 16.0712 12.6541 16.278 12.2212L15.3757 11.7901C15.0938 12.38 14.9604 13.0469 14.9604 13.7784H15.9604ZM16.2775 12.2223C16.4885 11.7832 16.7738 11.4557 17.1311 11.2229L16.5851 10.3851C16.0617 10.7262 15.6595 11.1998 15.3762 11.7891L16.2775 12.2223ZM17.1317 11.2225C17.4843 10.9919 17.9038 10.8693 18.4092 10.8693V9.86932C17.7328 9.86932 17.1182 10.0365 16.5845 10.3855L17.1317 11.2225ZM18.4092 10.8693C18.6934 10.8693 18.9755 10.9165 19.2574 11.0129L19.5809 10.0667C19.1981 9.93577 18.8068 9.86932 18.4092 9.86932V10.8693ZM19.2574 11.0129C19.5185 11.1021 19.7605 11.2481 19.9849 11.4585L20.6688 10.729C20.3477 10.428 19.9846 10.2047 19.5809 10.0667L19.2574 11.0129ZM19.9869 11.4604C20.1938 11.6522 20.3726 11.9191 20.5126 12.2802L21.445 11.9187C21.2612 11.4446 21.0054 11.041 20.6668 10.7271L19.9869 11.4604ZM20.5126 12.2802C20.6457 12.6234 20.7217 13.0721 20.7217 13.642H21.7217C21.7217 12.9904 21.6358 12.4107 21.445 11.9187L20.5126 12.2802ZM20.7217 13.642V14.0682H21.7217V13.642H20.7217ZM21.2217 13.5682H16.1763V14.5682H21.2217V13.5682ZM16.6763 14.0682V13.1989H15.6763V14.0682H16.6763ZM16.1763 13.6989H20.199V12.6989H16.1763V13.6989ZM20.699 13.1989C20.699 12.7614 20.611 12.3522 20.4229 11.9831L19.5319 12.4373C19.6392 12.6478 19.699 12.8977 19.699 13.1989H20.699ZM20.4246 11.9866C20.2392 11.6158 19.9691 11.3168 19.619 11.0994L19.0914 11.9489C19.2811 12.0667 19.4258 12.2251 19.5302 12.4338L20.4246 11.9866ZM19.6211 11.1007C19.2627 10.8758 18.8522 10.7727 18.4092 10.7727V11.7727C18.6935 11.7727 18.9136 11.8373 19.0894 11.9476L19.6211 11.1007ZM18.4092 10.7727C17.9221 10.7727 17.4746 10.895 17.0884 11.1575L17.6505 11.9846C17.8495 11.8493 18.0952 11.7727 18.4092 11.7727V10.7727ZM17.0893 11.1569C16.7274 11.4017 16.4468 11.7237 16.2524 12.1161L17.1484 12.5601C17.2665 12.3217 17.4319 12.1324 17.6496 11.9852L17.0893 11.1569ZM16.2524 12.1161C16.0611 12.5022 15.966 12.9165 15.966 13.3523H16.966C16.966 13.0665 17.0273 12.8046 17.1484 12.5601L16.2524 12.1161ZM15.966 13.3523V13.9318H16.966V13.3523H15.966ZM15.966 13.9318C15.966 14.4817 16.0607 14.9813 16.2738 15.411L17.1697 14.9668C17.0419 14.7091 16.966 14.3706 16.966 13.9318H15.966ZM16.276 15.4155C16.4893 15.8352 16.7938 16.1695 17.19 16.4006L17.6938 15.5369C17.4764 15.41 17.3007 15.2245 17.1674 14.9623L16.276 15.4155ZM17.193 16.4024C17.5862 16.6281 18.031 16.733 18.5115 16.733V15.733C18.1795 15.733 17.9113 15.6617 17.6908 15.5351L17.193 16.4024ZM18.5115 16.733C18.8221 16.733 19.1173 16.6895 19.3912 16.5946L19.0636 15.6497C18.9114 15.7025 18.7293 15.733 18.5115 15.733V16.733ZM19.3948 16.5933C19.6739 16.4941 19.9222 16.344 20.1326 16.1413L19.4387 15.4212C19.3366 15.5196 19.2127 15.5968 19.06 15.651L19.3948 16.5933ZM20.1359 16.138C20.3496 15.9282 20.508 15.6739 20.616 15.3858L19.6797 15.0347C19.6173 15.2011 19.5342 15.3275 19.4353 15.4245L20.1359 16.138ZM20.0127 15.6916L20.9843 15.9643L21.2546 15.0016L20.283 14.7288L20.0127 15.6916ZM20.6419 15.3348C20.563 15.589 20.4317 15.8107 20.2442 16.0049L20.9635 16.6996C21.2589 16.3938 21.4713 16.036 21.597 15.6312L20.6419 15.3348ZM20.2462 16.0029C20.0591 16.1943 19.8225 16.3502 19.5265 16.4663L19.8914 17.3973C20.3056 17.235 20.6655 17.0046 20.9615 16.7017L20.2462 16.0029ZM19.5297 16.465C19.2404 16.5761 18.9033 16.6364 18.5115 16.6364V17.6364C19.006 17.6364 19.4673 17.5602 19.8882 17.3986L19.5297 16.465ZM44.0038 10.4545L44.4728 10.628L44.7218 9.95455H44.0038V10.4545ZM41.5834 17V17.5H41.9316L42.0523 17.1734L41.5834 17ZM40.5606 17L40.0917 17.1734L40.2124 17.5H40.5606V17ZM38.1402 10.4545V9.95455H37.4222L37.6712 10.628L38.1402 10.4545ZM39.2311 10.4545L39.7036 10.2909L39.587 9.95455H39.2311V10.4545ZM41.0379 15.6705L40.5655 15.8341L40.682 16.1705H41.0379V15.6705ZM41.1061 15.6705V16.1705H41.462L41.5786 15.8341L41.1061 15.6705ZM42.9129 10.4545V9.95455H42.557L42.4405 10.2909L42.9129 10.4545ZM43.5349 10.2811L41.1144 16.8266L42.0523 17.1734L44.4728 10.628L43.5349 10.2811ZM41.5834 16.5H40.5606V17.5H41.5834V16.5ZM41.0296 16.8266L38.6091 10.2811L37.6712 10.628L40.0917 17.1734L41.0296 16.8266ZM38.1402 10.9545H39.2311V9.95455H38.1402V10.9545ZM38.7586 10.6182L40.5655 15.8341L41.5104 15.5068L39.7036 10.2909L38.7586 10.6182ZM41.0379 16.1705H41.1061V15.1705H41.0379V16.1705ZM41.5786 15.8341L43.3854 10.6182L42.4405 10.2909L40.6336 15.5068L41.5786 15.8341ZM42.9129 10.9545H44.0038V9.95455H42.9129V10.9545ZM46.6891 16.7188L46.426 17.144L46.4291 17.1458L46.6891 16.7188ZM45.6365 15.5426L45.1863 15.7601L45.1878 15.7632L45.6365 15.5426ZM45.6365 12.0057L45.1859 11.7891L45.1854 11.7901L45.6365 12.0057ZM46.6678 10.804L46.9407 11.2229L46.9414 11.2225L46.6678 10.804ZM49.2288 10.5398L49.3906 10.0667L49.3906 10.0667L49.2288 10.5398ZM50.1365 11.0938L49.7945 11.4585L49.7966 11.4604L50.1365 11.0938ZM50.7885 12.0994L51.2547 11.9187L51.2547 11.9187L50.7885 12.0994ZM51.0314 14.0682V14.5682H51.5314V14.0682H51.0314ZM45.986 14.0682H45.486V14.5682H45.986V14.0682ZM45.986 13.1989V12.6989H45.486V13.1989H45.986ZM50.0087 13.1989V13.6989H50.5087V13.1989H50.0087ZM49.7871 12.2102L49.3399 12.4338L49.3416 12.4373L49.7871 12.2102ZM49.1649 11.5241L48.8991 11.9476L48.9011 11.9489L49.1649 11.5241ZM47.1791 11.571L47.4593 11.9852L47.4602 11.9846L47.1791 11.571ZM46.5101 12.3381L46.0621 12.1161L46.0621 12.1161L46.5101 12.3381ZM46.5314 15.1889L46.0834 15.4111L46.0857 15.4155L46.5314 15.1889ZM47.2516 15.9688L46.9996 16.4006L47.0026 16.4024L47.2516 15.9688ZM49.0371 16.1222L49.2009 16.5946L49.2045 16.5933L49.0371 16.1222ZM49.5953 15.7812L49.9423 16.1413L49.9456 16.138L49.5953 15.7812ZM49.9575 15.2102L50.0927 14.7288L49.6506 14.6047L49.4894 15.0347L49.9575 15.2102ZM50.9291 15.483L51.4067 15.6312L51.559 15.1404L51.0643 15.0016L50.9291 15.483ZM50.4135 16.3523L50.7712 16.7017L50.7731 16.6996L50.4135 16.3523ZM49.5186 16.9318L49.6979 17.3986L49.7011 17.3973L49.5186 16.9318ZM48.3212 16.6364C47.7657 16.6364 47.3151 16.5145 46.9491 16.2917L46.4291 17.1458C46.9778 17.4798 47.6153 17.6364 48.3212 17.6364V16.6364ZM46.9522 16.2936C46.5814 16.0642 46.2931 15.7449 46.0852 15.3221L45.1878 15.7632C45.4743 16.346 45.8876 16.8108 46.426 17.1439L46.9522 16.2936ZM46.0867 15.3251C45.8809 14.8991 45.77 14.388 45.77 13.7784H44.77C44.77 14.5098 44.9035 15.1747 45.1863 15.7601L46.0867 15.3251ZM45.77 13.7784C45.77 13.169 45.8809 12.6541 46.0877 12.2212L45.1854 11.7901C44.9035 12.38 44.77 13.0469 44.77 13.7784H45.77ZM46.0872 12.2223C46.2982 11.7832 46.5835 11.4557 46.9407 11.2229L46.3948 10.3851C45.8713 10.7262 45.4691 11.1998 45.1859 11.7891L46.0872 12.2223ZM46.9414 11.2225C47.294 10.9919 47.7135 10.8693 48.2189 10.8693V9.86932C47.5425 9.86932 46.9279 10.0365 46.3941 10.3855L46.9414 11.2225ZM48.2189 10.8693C48.5031 10.8693 48.7852 10.9165 49.0671 11.0129L49.3906 10.0667C49.0077 9.93577 48.6165 9.86932 48.2189 9.86932V10.8693ZM49.0671 11.0129C49.3282 11.1021 49.5702 11.2481 49.7945 11.4585L50.4785 10.729C50.1574 10.428 49.7943 10.2047 49.3906 10.0667L49.0671 11.0129ZM49.7966 11.4604C50.0034 11.6522 50.1823 11.9191 50.3223 12.2802L51.2547 11.9187C51.0709 11.4446 50.8151 11.041 50.4765 10.7271L49.7966 11.4604ZM50.3223 12.2802C50.4554 12.6234 50.5314 13.0721 50.5314 13.642H51.5314C51.5314 12.9904 51.4455 12.4107 51.2547 11.9187L50.3223 12.2802ZM50.5314 13.642V14.0682H51.5314V13.642H50.5314ZM51.0314 13.5682H45.986V14.5682H51.0314V13.5682ZM46.486 14.0682V13.1989H45.486V14.0682H46.486ZM45.986 13.6989H50.0087V12.6989H45.986V13.6989ZM50.5087 13.1989C50.5087 12.7614 50.4207 12.3522 50.2325 11.9831L49.3416 12.4373C49.4489 12.6478 49.5087 12.8977 49.5087 13.1989H50.5087ZM50.2343 11.9866C50.0489 11.6158 49.7788 11.3168 49.4287 11.0994L48.9011 11.9489C49.0908 12.0667 49.2355 12.2251 49.3399 12.4338L50.2343 11.9866ZM49.4307 11.1007C49.0724 10.8758 48.6619 10.7727 48.2189 10.7727V11.7727C48.5032 11.7727 48.7233 11.8373 48.8991 11.9476L49.4307 11.1007ZM48.2189 10.7727C47.7318 10.7727 47.2843 10.895 46.8981 11.1575L47.4602 11.9846C47.6592 11.8493 47.9049 11.7727 48.2189 11.7727V10.7727ZM46.899 11.1569C46.5371 11.4017 46.2565 11.7237 46.0621 12.1161L46.9581 12.5601C47.0762 12.3217 47.2416 12.1324 47.4593 11.9852L46.899 11.1569ZM46.0621 12.1161C45.8708 12.5022 45.7757 12.9165 45.7757 13.3523H46.7757C46.7757 13.0665 46.8369 12.8046 46.9581 12.5601L46.0621 12.1161ZM45.7757 13.3523V13.9318H46.7757V13.3523H45.7757ZM45.7757 13.9318C45.7757 14.4817 45.8704 14.9813 46.0835 15.411L46.9794 14.9668C46.8516 14.7091 46.7757 14.3706 46.7757 13.9318H45.7757ZM46.0857 15.4155C46.299 15.8352 46.6034 16.1695 46.9996 16.4006L47.5035 15.5369C47.2861 15.41 47.1104 15.2245 46.9771 14.9623L46.0857 15.4155ZM47.0026 16.4024C47.3958 16.6281 47.8407 16.733 48.3212 16.733V15.733C47.9891 15.733 47.7209 15.6617 47.5005 15.5351L47.0026 16.4024ZM48.3212 16.733C48.6318 16.733 48.927 16.6895 49.2009 16.5946L48.8733 15.6497C48.7211 15.7025 48.539 15.733 48.3212 15.733V16.733ZM49.2045 16.5933C49.4836 16.4941 49.7319 16.344 49.9423 16.1413L49.2484 15.4212C49.1462 15.5196 49.0224 15.5968 48.8697 15.651L49.2045 16.5933ZM49.9456 16.138C50.1593 15.9282 50.3177 15.6739 50.4257 15.3858L49.4894 15.0347C49.427 15.2011 49.3438 15.3275 49.245 15.4245L49.9456 16.138ZM49.8224 15.6916L50.794 15.9643L51.0643 15.0016L50.0927 14.7288L49.8224 15.6916ZM50.4516 15.3348C50.3727 15.589 50.2414 15.8107 50.0539 16.0049L50.7731 16.6996C51.0685 16.3938 51.281 16.036 51.4067 15.6312L50.4516 15.3348ZM50.0559 16.0029C49.8688 16.1943 49.6322 16.3502 49.3361 16.4663L49.7011 17.3973C50.1153 17.235 50.4752 17.0046 50.7711 16.7017L50.0559 16.0029ZM49.3394 16.465C49.0501 16.5761 48.713 16.6364 48.3212 16.6364V17.6364C48.8157 17.6364 49.2769 17.5602 49.6979 17.3986L49.3394 16.465Z" fill="white" mask="url(#path-1-outside-1_31_2)"/>
<path d="M36.3913 12.5C36.3913 16.0899 33.4179 19 29.75 19C26.0821 19 23.1087 16.0899 23.1087 12.5C23.1087 8.91015 26.0821 6 29.75 6C33.4179 6 36.3913 8.91015 36.3913 12.5Z" fill="#045ADC"/>
<mask id="path-4-outside-2_31_2" maskUnits="userSpaceOnUse" x="27" y="8" width="6" height="9" fill="black">
<rect fill="white" x="27" y="8" width="6" height="9"/>
<path d="M28.6821 8.72727V16H27.844V8.72727H28.6821ZM31.6551 8.72727V16H30.817V8.72727H31.6551Z"/>
</mask>
<path d="M28.6821 8.72727V16H27.844V8.72727H28.6821ZM31.6551 8.72727V16H30.817V8.72727H31.6551Z" fill="white"/>
<path d="M28.6821 8.72727H29.1821V8.22727H28.6821V8.72727ZM28.6821 16V16.5H29.1821V16H28.6821ZM27.844 16H27.344V16.5H27.844V16ZM27.844 8.72727V8.22727H27.344V8.72727H27.844ZM28.1821 8.72727V16H29.1821V8.72727H28.1821ZM28.6821 15.5H27.844V16.5H28.6821V15.5ZM28.344 16V8.72727H27.344V16H28.344ZM27.844 9.22727H28.6821V8.22727H27.844V9.22727ZM31.6551 8.72727H32.1551V8.22727H31.6551V8.72727ZM31.6551 16V16.5H32.1551V16H31.6551ZM30.817 16H30.317V16.5H30.817V16ZM30.817 8.72727V8.22727H30.317V8.72727H30.817ZM31.1551 8.72727V16H32.1551V8.72727H31.1551ZM31.6551 15.5H30.817V16.5H31.6551V15.5ZM31.317 16V8.72727H30.317V16H31.317ZM30.817 9.22727H31.6551V8.22727H30.817V9.22727Z" fill="white" mask="url(#path-4-outside-2_31_2)"/>
</svg>
